<svg viewBox="0 0 300 300" xmlns="http://www.w3.org/2000/svg"><g transform="translate(0 -1)"><ellipse cx="150.5" cy="151.11" rx="146.89" ry="146.28" fill="none" stroke="#0086f6" stroke-width="7.543"/><g fill="#0086ff" style="font-feature-settings:normal;font-variant-caps:normal;font-variant-ligatures:normal;font-variant-numeric:normal" aria-label="x5"><path d="M144.66 190.603h-20.256l-27.093-36.665-27.264 36.665H51.33l37.263-47.605-36.921-47.861h20.256l26.922 36.067 27.007-36.067h18.803l-37.52 47.007zM248.67 150.183q0 8.888-3.248 17.008t-8.888 13.675q-6.154 5.982-14.7 9.23-8.461 3.162-19.657 3.162-10.427 0-20.085-2.222-9.658-2.137-16.324-5.213V167.79h1.196q7.009 4.444 16.41 7.606 9.402 3.077 18.461 3.077 6.068 0 11.71-1.71 5.726-1.709 10.17-5.982 3.76-3.675 5.641-8.803 1.966-5.128 1.966-11.88 0-6.58-2.308-11.11-2.222-4.53-6.239-7.266-4.444-3.247-10.854-4.53-6.324-1.367-14.187-1.367-7.52 0-14.529 1.026-6.923 1.025-11.965 2.051V63.35h76.578v14.957h-60.083v33.845q3.675-.342 7.521-.513 3.846-.17 6.667-.17 10.34 0 18.119 1.794 7.777 1.71 14.273 6.154 6.837 4.7 10.598 12.136t3.76 18.632z"/></g><text x="44.523" y="240.241" fill="#0086ff" font-family="Michroma" font-size="49.584" letter-spacing="0" stroke-width="1.24" word-spacing="0" style="line-height:1.25"><tspan x="44.523" y="240.241">Notify</tspan></text></g></svg>