<svg xmlns="http://www.w3.org/2000/svg" width="300" height="300"><g transform="translate(0 -1)"><g aria-label="x5" style="line-height:1.25;-inkscape-font-specification:'sans-serif, Normal';font-variant-ligatures:normal;font-variant-caps:normal;font-variant-numeric:normal;font-feature-settings:normal;text-align:start" font-weight="400" font-size="175.035" font-family="sans-serif" letter-spacing="0" word-spacing="0" fill="#0086ff" stroke-width=".656"><path d="M144.41 222.148h-23.096l-30.89-41.805-31.087 41.805h-21.34l42.487-54.278-42.098-54.571h23.095l30.696 41.123 30.794-41.123h21.438l-42.78 53.596zM263.004 176.056q0 10.134-3.703 19.392-3.703 9.257-10.135 15.591-7.016 6.822-16.76 10.525-9.648 3.605-22.414 3.605-11.889 0-22.9-2.533-11.012-2.436-18.613-5.945V196.13h1.364q7.991 5.067 18.71 8.673 10.72 3.508 21.05 3.508 6.918 0 13.35-1.95 6.529-1.948 11.596-6.82 4.288-4.19 6.432-10.038 2.24-5.847 2.24-13.545 0-7.503-2.63-12.668-2.534-5.165-7.114-8.283-5.067-3.703-12.376-5.165-7.211-1.56-16.176-1.56-8.576 0-16.566 1.17-7.894 1.17-13.643 2.339V77.048h87.313v17.054h-68.506v38.59q4.19-.39 8.576-.586 4.385-.194 7.6-.194 11.792 0 20.66 2.046 8.868 1.949 16.274 7.016 7.795 5.36 12.083 13.838 4.288 8.478 4.288 21.244z"/></g><circle cx="150" cy="151" r="145" fill="none" stroke="#0086ff" stroke-width="10" stroke-linecap="square" stroke-linejoin="round" stroke-miterlimit="1"/></g></svg>